<svg width="152" height="40" viewBox="0 0 152 40" fill="none" xmlns="http://www.w3.org/2000/svg">
<g filter="url(#filter0_d_5_12)">
<path d="M20 6.624C19.7227 6.304 19.264 5.97333 18.624 5.632C18.0053 5.26933 17.28 4.96 16.448 4.704C15.616 4.448 14.752 4.32 13.856 4.32C12.3413 4.32 11.2213 4.59733 10.496 5.152C9.792 5.70667 9.44 6.47467 9.44 7.456C9.44 8.18133 9.64267 8.75733 10.048 9.184C10.4533 9.58933 11.072 9.94133 11.904 10.24C12.736 10.5173 13.7813 10.8053 15.04 11.104C16.576 11.4667 17.8987 11.904 19.008 12.416C20.1387 12.9067 21.0027 13.568 21.6 14.4C22.2187 15.232 22.528 16.3307 22.528 17.696C22.528 19.2533 22.1547 20.512 21.408 21.472C20.6613 22.432 19.648 23.136 18.368 23.584C17.1093 24.0107 15.7227 24.224 14.208 24.224C12.48 24.224 10.8053 23.9573 9.184 23.424C7.56267 22.8907 6.112 22.1333 4.832 21.152L6.464 18.08C6.82667 18.4427 7.40267 18.8587 8.192 19.328C8.98133 19.776 9.89867 20.1707 10.944 20.512C12.0107 20.832 13.12 20.992 14.272 20.992C15.68 20.992 16.768 20.7467 17.536 20.256C18.304 19.744 18.688 19.0187 18.688 18.08C18.688 17.312 18.432 16.704 17.92 16.256C17.4293 15.7867 16.7147 15.4027 15.776 15.104C14.8587 14.784 13.7493 14.4533 12.448 14.112C10.9547 13.728 9.70667 13.2907 8.704 12.8C7.70133 12.3093 6.944 11.6907 6.432 10.944C5.94133 10.1973 5.696 9.22667 5.696 8.032C5.696 6.53867 6.05867 5.28 6.784 4.256C7.50933 3.21067 8.49067 2.432 9.728 1.92C10.9867 1.38667 12.3947 1.12 13.952 1.12C15.488 1.12 16.9067 1.36533 18.208 1.856C19.5093 2.34667 20.6507 2.95467 21.632 3.68L20 6.624ZM33.2585 24.32C31.5305 24.32 30.0158 23.9253 28.7145 23.136C27.4132 22.3467 26.3998 21.3013 25.6745 20C24.9492 18.6773 24.5865 17.2373 24.5865 15.68C24.5865 14.1013 24.9492 12.6507 25.6745 11.328C26.3998 10.0053 27.4132 8.94933 28.7145 8.16C30.0158 7.37067 31.5412 6.976 33.2905 6.976C35.0398 6.976 36.5545 7.38133 37.8345 8.192C39.1145 8.98133 40.0958 10.0267 40.7785 11.328C41.4825 12.6293 41.8345 14.0267 41.8345 15.52C41.8345 16.0533 41.8025 16.48 41.7385 16.8H28.3305C28.3945 17.7813 28.6612 18.6453 29.1305 19.392C29.6212 20.1173 30.2292 20.6933 30.9545 21.12C31.7012 21.5253 32.5118 21.728 33.3865 21.728C34.3252 21.728 35.2105 21.4933 36.0425 21.024C36.8745 20.5547 37.4505 19.936 37.7705 19.168L40.7785 20.032C40.2025 21.2907 39.2425 22.3253 37.8985 23.136C36.5758 23.9253 35.0292 24.32 33.2585 24.32ZM28.2345 14.464H38.3465C38.2612 13.504 37.9838 12.6613 37.5145 11.936C37.0452 11.1893 36.4372 10.6133 35.6905 10.208C34.9652 9.78133 34.1545 9.568 33.2585 9.568C32.3838 9.568 31.5732 9.78133 30.8265 10.208C30.1012 10.6133 29.5038 11.1893 29.0345 11.936C28.5652 12.6613 28.2985 13.504 28.2345 14.464ZM70.3058 24H66.7858V14.624C66.7858 13.088 66.5298 11.9573 66.0178 11.232C65.5058 10.4853 64.7591 10.112 63.7778 10.112C62.7964 10.112 61.8791 10.4853 61.0258 11.232C60.1938 11.9573 59.6071 12.9067 59.2658 14.08V24H55.7458V14.624C55.7458 13.0453 55.4898 11.904 54.9778 11.2C54.4658 10.4747 53.7298 10.112 52.7698 10.112C51.7884 10.112 50.8711 10.4747 50.0178 11.2C49.1858 11.9253 48.5884 12.8747 48.2258 14.048V24H44.7057V7.264H47.9058V10.624C48.5458 9.45067 49.4098 8.55467 50.4978 7.936C51.5858 7.296 52.8231 6.976 54.2098 6.976C55.5964 6.976 56.6844 7.33867 57.4738 8.064C58.2844 8.78933 58.7858 9.696 58.9778 10.784C60.4284 8.24533 62.5298 6.976 65.2818 6.976C66.6044 6.976 67.6284 7.296 68.3538 7.936C69.0791 8.55467 69.5804 9.38667 69.8578 10.432C70.1564 11.456 70.3058 12.576 70.3058 13.792V24ZM74.202 17.504V7.264H77.722V16.8C77.722 19.808 78.7887 21.312 80.922 21.312C81.9247 21.312 82.874 21.0027 83.77 20.384C84.666 19.744 85.3593 18.848 85.85 17.696V7.264H89.37V20.032C89.37 20.4373 89.4447 20.7253 89.594 20.896C89.7433 21.0667 89.9887 21.1627 90.33 21.184V24C89.9673 24.064 89.6687 24.1067 89.434 24.128C89.1993 24.1493 88.9753 24.16 88.762 24.16C88.122 24.16 87.5887 23.9893 87.162 23.648C86.7353 23.3067 86.49 22.848 86.426 22.272L86.362 20.608C85.6153 21.824 84.6447 22.752 83.45 23.392C82.2553 24.0107 80.9433 24.32 79.514 24.32C77.7647 24.32 76.442 23.744 75.546 22.592C74.65 21.44 74.202 19.744 74.202 17.504ZM108.87 24H105.35V14.624C105.35 13.0453 105.094 11.904 104.582 11.2C104.091 10.4747 103.355 10.112 102.374 10.112C101.691 10.112 101.009 10.2827 100.326 10.624C99.6647 10.9653 99.0673 11.4347 98.534 12.032C98.0007 12.6293 97.6167 13.3013 97.382 14.048V24H93.862V7.264H97.062V10.624C97.702 9.51467 98.63 8.62933 99.846 7.968C101.062 7.30667 102.406 6.976 103.878 6.976C105.201 6.976 106.225 7.296 106.95 7.936C107.675 8.55467 108.177 9.376 108.454 10.4C108.731 11.424 108.87 12.5547 108.87 13.792V24ZM112.956 4.512V0.639999H116.476V4.512H112.956ZM112.956 24V7.264H116.476V24H112.956ZM130.018 23.136C129.57 23.3493 128.951 23.5947 128.162 23.872C127.372 24.128 126.53 24.256 125.634 24.256C124.524 24.256 123.564 23.9573 122.754 23.36C121.964 22.7627 121.57 21.792 121.57 20.448V9.984H119.362V7.264H121.57V1.76H125.09V7.264H128.738V9.984H125.09V19.328C125.132 19.9253 125.314 20.3627 125.634 20.64C125.975 20.896 126.391 21.024 126.882 21.024C127.372 21.024 127.842 20.9387 128.29 20.768C128.738 20.5973 129.068 20.4587 129.282 20.352L130.018 23.136ZM133.001 27.936C133.321 28 133.63 28.0533 133.929 28.096C134.249 28.1387 134.505 28.16 134.697 28.16C135.059 28.16 135.369 28.0427 135.625 27.808C135.902 27.5947 136.179 27.1893 136.457 26.592C136.734 25.9947 137.075 25.1307 137.481 24L130.601 7.264H134.281L139.401 20.416L143.945 7.264H147.337L139.753 27.872C139.411 28.8107 138.814 29.6107 137.961 30.272C137.129 30.9333 136.051 31.264 134.729 31.264C134.473 31.264 134.206 31.2427 133.929 31.2C133.651 31.1573 133.342 31.0933 133.001 31.008V27.936Z" fill="white"/>
</g>
<defs>
<filter id="filter0_d_5_12" x="0.832" y="0.639999" width="150.505" height="38.624" filterUnits="userSpaceOnUse" color-interpolation-filters="sRGB">
<feFlood flood-opacity="0" result="BackgroundImageFix"/>
<feColorMatrix in="SourceAlpha" type="matrix" values="0 0 0 0 0 0 0 0 0 0 0 0 0 0 0 0 0 0 127 0" result="hardAlpha"/>
<feOffset dy="4"/>
<feGaussianBlur stdDeviation="2"/>
<feComposite in2="hardAlpha" operator="out"/>
<feColorMatrix type="matrix" values="0 0 0 0 0 0 0 0 0 0 0 0 0 0 0 0 0 0 0.25 0"/>
<feBlend mode="normal" in2="BackgroundImageFix" result="effect1_dropShadow_5_12"/>
<feBlend mode="normal" in="SourceGraphic" in2="effect1_dropShadow_5_12" result="shape"/>
</filter>
</defs>
</svg>
